<?xml version="1.0" encoding="utf-8"?>
<!-- Generator: Adobe Illustrator 17.0.1, SVG Export Plug-In . SVG Version: 6.00 Build 0)  -->
<!DOCTYPE svg PUBLIC "-//W3C//DTD SVG 1.1//EN" "http://www.w3.org/Graphics/SVG/1.1/DTD/svg11.dtd">
<svg version="1.1" id="Capa_1" xmlns="http://www.w3.org/2000/svg" xmlns:xlink="http://www.w3.org/1999/xlink" x="0px" y="0px"
	 width="389.65px" height="389.65px" viewBox="0 0 389.65 389.65" enable-background="new 0 0 389.65 389.65" xml:space="preserve">
<g>
	<path fill="#FFFFFF" d="M194.777,25.724c93.485,0,169.557,76.072,169.557,169.557s-76.072,169.557-169.557,169.557
		S25.22,288.767,25.22,195.282S101.292,25.724,194.777,25.724 M194.777,1.5C87.761,1.5,0.996,88.265,0.996,195.282
		c0,107.012,86.765,193.782,193.782,193.782c107.012,0,193.782-86.77,193.782-193.782C388.559,88.265,301.789,1.5,194.777,1.5
		L194.777,1.5z M302.81,260.069l-1.091-3.312c-2.554-7.613-10.973-15.564-18.736-17.693l-28.644-7.828
		c-7.758-2.107-18.827,0.731-24.531,6.435l-10.36,10.36c-37.659-10.198-67.202-39.74-77.373-77.4l10.36-10.36
		c5.677-5.677,8.516-16.747,6.409-24.531l-7.806-28.644c-2.102-7.763-10.102-16.182-17.715-18.736l-3.268-1.091
		c-7.64-2.554-18.543,0.026-24.22,5.725l-15.52,15.52c-2.764,2.742-4.538,10.618-4.538,10.645
		c-0.521,49.249,18.779,96.677,53.6,131.521c34.724,34.724,81.99,54.003,131.07,53.578c0.263,0,8.376-1.727,11.144-4.494
		l15.516-15.52C302.784,278.595,305.341,267.687,302.81,260.069L302.81,260.069z M302.81,260.069"/>
</g>
</svg>
