<?xml version="1.0" encoding="utf-8"?>
<!-- Generator: Adobe Illustrator 17.0.1, SVG Export Plug-In . SVG Version: 6.00 Build 0)  -->
<!DOCTYPE svg PUBLIC "-//W3C//DTD SVG 1.1//EN" "http://www.w3.org/Graphics/SVG/1.1/DTD/svg11.dtd">
<svg version="1.1" id="Capa_1" xmlns="http://www.w3.org/2000/svg" xmlns:xlink="http://www.w3.org/1999/xlink" x="0px" y="0px"
	 width="689.66px" height="169.995px" viewBox="0 0 689.66 169.995" enable-background="new 0 0 689.66 169.995"
	 xml:space="preserve">
<linearGradient id="SVGID_1_" gradientUnits="userSpaceOnUse" x1="622.4734" y1="170.046" x2="622.4734" y2="96.5307">
	<stop  offset="0" style="stop-color:#006FFF"/>
	<stop  offset="1" style="stop-color:#E52472"/>
</linearGradient>
<path fill="url(#SVGID_1_)" d="M689.378,165.934l0.283-116.942c-13.942-9.743-28.404,39.931-52.745,36.173
	c-15.708-2.425-31.683-34.961-47.194-59.102c-10.788-16.79-21.35-29.513-31.44-25.225c-0.658,0.37-2.995,1.8-2.995,3.475
	c0,2.445,1.262,3.231,2.526,4.227c26.773,20.778,43.139,53.055,43.139,89.997c0,25.178-7.25,48.243-19.984,67.135L689.378,165.934z"
	/>
<g>
	<path fill="#FFFFFF" d="M0,33.961h33.963l16.612,82.507c1.661,8.121,1.661,13.844,1.661,13.844h0.369c0,0,0.185-5.722,2.215-13.844
		l20.304-82.507h26.025l19.75,82.507c2.031,8.121,2.215,13.844,2.215,13.844h0.369c0,0,0-5.722,1.661-13.844l18.089-82.507h33.408
		l-33.408,131.974H107.24L90.628,99.302c-2.031-8.491-2.584-15.505-2.584-15.505h-0.369c0,0-0.553,7.014-2.584,15.505
		l-16.612,66.632H32.117L0,33.961z"/>
	<path fill="#FFFFFF" d="M243.473,31.746c39.869,0,69.033,29.533,69.033,67.372c0,38.761-29.164,69.032-69.033,69.032
		s-69.032-30.271-69.032-69.032C174.441,61.279,203.604,31.746,243.473,31.746z M243.473,138.617
		c19.75,0,35.624-16.981,35.624-39.499c0-21.596-15.874-37.839-35.624-37.839c-19.75,0-35.624,16.242-35.624,37.839
		C207.849,121.636,223.724,138.617,243.473,138.617z"/>
	<path fill="#FFFFFF" d="M322.671,33.961h45.96c13.474,0,19.934,0.923,25.656,3.138c14.951,5.721,24.364,19.196,24.364,38.393
		c0,14.027-6.645,29.347-19.75,35.993v0.369c0,0,1.846,2.399,4.984,7.937l25.656,46.144h-35.993l-23.441-44.483h-15.135v44.483
		h-32.301V33.961z M369.001,93.764c10.336,0,16.797-5.721,16.797-16.243c0-9.967-3.692-15.873-19.935-15.873h-10.89v32.116H369.001z
		"/>
	<path fill="#FFFFFF" d="M496.377,31.746c39.869,0,69.033,29.533,69.033,67.372c0,15.135-5.353,28.055-13.105,39.13l13.843,11.259
		l-18.273,20.489L534.4,157.259c-10.705,7.014-23.626,10.89-38.023,10.89c-39.869,0-69.032-30.271-69.032-69.032
		C427.345,61.279,456.508,31.746,496.377,31.746z M496.377,138.617c4.799,0,10.336-0.923,14.397-2.953L497.3,123.851l18.089-20.489
		l13.105,12.736c2.215-5.168,3.507-10.89,3.507-16.981c0-21.596-15.874-37.839-35.624-37.839c-19.75,0-35.624,16.242-35.624,37.839
		C460.753,121.636,476.627,138.617,496.377,138.617z"/>
</g>
</svg>
