<?xml version="1.0" encoding="utf-8"?>
<!-- Generator: Adobe Illustrator 17.0.1, SVG Export Plug-In . SVG Version: 6.00 Build 0)  -->
<!DOCTYPE svg PUBLIC "-//W3C//DTD SVG 1.1//EN" "http://www.w3.org/Graphics/SVG/1.1/DTD/svg11.dtd">
<svg version="1.1" id="Capa_1" xmlns="http://www.w3.org/2000/svg" xmlns:xlink="http://www.w3.org/1999/xlink" x="0px" y="0px"
	 width="686.857px" height="169.995px" viewBox="0 0 686.857 169.995" enable-background="new 0 0 686.857 169.995"
	 xml:space="preserve">
<linearGradient id="SVGID_1_" gradientUnits="userSpaceOnUse" x1="619.9091" y1="170.0455" x2="619.9091" y2="96.6971">
	<stop  offset="0" style="stop-color:#006FFF"/>
	<stop  offset="1" style="stop-color:#E52472"/>
</linearGradient>
<path fill="url(#SVGID_1_)" d="M686.661,165.943l0.282-116.677c-13.91-9.721-28.34,39.84-52.625,36.091
	c-15.672-2.419-31.612-34.882-47.087-58.968C576.468,9.638,565.93-3.056,555.862,1.222c-0.656,0.369-2.988,1.796-2.988,3.467
	c0,2.44,1.259,3.224,2.52,4.218c26.712,20.731,43.041,52.935,43.041,89.793c0,25.121-7.234,48.133-19.939,66.983L686.661,165.943z"
	/>
<g>
	<defs>
		<path id="SVGID_2_" d="M686.943,165.682V49.266c-13.91-9.721-28.34,39.84-52.625,36.091
			c-15.672-2.419-31.612-34.882-47.087-58.968C576.468,9.638,565.93-3.056,555.862,1.222c-0.656,0.369-2.988,1.796-2.988,3.467
			c0,2.44,1.259,3.224,2.52,4.218c26.712,20.731,43.041,52.935,43.041,89.793c0,25.121-7.234,48.133-19.939,66.983H686.943z"/>
	</defs>
	<clipPath id="SVGID_3_">
		<use xlink:href="#SVGID_2_"  overflow="visible"/>
	</clipPath>
	<path opacity="0.1" clip-path="url(#SVGID_3_)" d="M819.93,152.43c-120.983-25.152-107.892-27.872-121.039-76.91
		c-18.582-69.308-33.508,14.682-64.852,9.843c-15.672-2.419-31.611-34.882-47.087-58.968c-15.475-24.086-30.486-39.795-44.3-8.708
		c-19.548,43.991-7.102,50.653-128.967,38.317l-5.308,77.153L587,175.533l199.491,15.992L819.93,152.43z"/>
	<path opacity="0.1" clip-path="url(#SVGID_3_)" d="M420.786,69.534l-5.443,72.406l26.294,7.997c0,0,48.237,6.944,52.116,6.801
		c3.879-0.142,104.432,14.4,109.222,14.185c4.79-0.215,177.344,25.492,180.077,25.274s33.406-35.024,31.13-35.324
		c-70.172-9.272-93.554-21.535-104.746-35.266c-7.764-9.525-9.459-21.523-14.071-38.725c-10.672-39.807-22.827-22.366-36.032-6.809
		c-7.578,8.927-16.423,17.058-26.685,15.476c-9.29-1.428-17.701-12.369-26.108-26.269c-6.389-10.564-11.743-19.634-18.117-28.365
		c-14.519-21.41-30.57-36.348-43.412-6.969c-13.995,31.834-12.531,42.239-65.09,40.18C460.808,73.505,444.345,71.919,420.786,69.534
		z"/>
	<path opacity="0.1" clip-path="url(#SVGID_3_)" d="M427.887,83.063l-5.577,67.66l22.192,11.302c0,0,45.224,5.976,52.982,5.691
		s101.453,12.219,111.033,11.789c9.58-0.43,165.631,21.8,171.098,21.363c5.467-0.437,33.375-30.973,28.82-31.553
		c-66.232-8.433-89.807-20.815-101.613-34.265c-8.681-9.89-10.946-21.756-14.982-36.808c-9.338-34.831-23.228-19.197-35.21-5.958
		c-7.307,8.073-15.942,14.9-25.374,13.448c-9.3-1.424-16.7-11.375-24.246-24.614c-6.35-11.142-10.682-18.048-17.118-25.688
		c-13.563-18.734-30.594-32.875-42.523-5.23c-12.631,29.272-14.059,38.489-63.376,36.879
		C461.276,86.537,448.501,85.149,427.887,83.063z"/>
	<path opacity="0.1" clip-path="url(#SVGID_3_)" d="M434.987,96.592l-5.712,62.914l18.091,14.607c0,0,42.211,5.008,53.848,4.581
		c11.637-0.427,98.473,10.038,112.843,9.393c14.37-0.646,153.919,18.108,162.119,17.453c8.2-0.655,33.347-26.949,26.509-27.782
		c-62.297-7.594-86.091-20.072-98.479-33.264c-9.618-10.241-12.433-21.989-15.892-34.891c-8.004-29.855-23.707-16.069-34.387-5.107
		c-7.061,7.248-15.461,12.742-24.063,11.421c-9.31-1.42-15.656-10.412-22.383-22.958c-6.293-11.737-9.621-16.462-16.119-23.01
		c-12.607-16.057-30.653-29.418-41.635-3.49c-11.306,26.692-15.587,34.739-61.662,33.577
		C461.744,99.57,452.656,98.38,434.987,96.592z"/>
	<path opacity="0.1" clip-path="url(#SVGID_3_)" d="M442.088,110.121l-5.846,58.167l13.989,17.911c0,0,39.198,4.041,54.713,3.471
		c15.516-0.57,95.494,7.857,114.654,6.997c19.16-0.861,142.206,14.416,153.14,13.543c10.934-0.874,33.323-22.955,24.199-24.011
		c-58.369-6.755-82.399-19.309-95.346-32.262c-10.572-10.577-13.921-22.222-16.803-32.974c-6.67-24.879-24.283-13.004-33.564-4.256
		c-6.849,6.456-14.979,10.584-22.752,9.393c-9.319-1.415-14.57-9.475-20.52-21.303c-6.213-12.349-8.559-14.875-15.12-20.333
		c-11.651-13.381-30.716-25.962-40.746-1.751c-9.987,24.108-17.116,30.989-59.948,30.276
		C462.212,112.602,456.812,111.611,442.088,110.121z"/>
	<path opacity="0.1" clip-path="url(#SVGID_3_)" d="M449.188,123.65l-5.981,53.421l9.887,21.216c0,0,36.185,3.073,55.579,2.361
		c19.395-0.712,92.515,5.676,116.465,4.601s130.494,10.724,144.161,9.632c13.667-1.092,33.303-19,21.89-20.24
		c-54.447-5.918-78.726-18.526-92.213-31.261c-11.541-10.898-15.408-22.455-17.714-31.057c-5.336-19.903-26.355-11.362-32.741-3.405
		c-7.627,4.358-14.498,8.426-21.441,7.365c-9.329-1.411-13.447-8.559-18.658-19.647c-6.1-12.98-7.498-13.289-14.121-17.655
		c-10.695-10.705-30.786-22.511-39.858-0.012c-8.677,21.521-18.644,27.239-58.234,26.975
		C462.681,125.635,460.968,124.842,449.188,123.65z"/>
	<path opacity="0.1" clip-path="url(#SVGID_3_)" d="M456.289,137.179l-6.115,48.675l5.786,24.521c0,0,33.172,2.106,56.445,1.251
		c23.273-0.854,89.536,3.496,118.276,2.205c28.74-1.291,118.781,7.032,135.181,5.722c16.4-1.31,33.287-15.091,19.579-16.469
		c-50.535-5.081-75.067-17.727-89.08-30.26c-12.524-11.202-16.895-22.688-18.625-29.139c-4.002-14.927-27.128-8.521-31.918-2.554
		c-7.578,3.268-14.016,6.268-20.13,5.338c-9.339-1.407-12.289-7.66-16.795-17.991c-5.946-13.63-6.437-11.703-13.122-14.978
		c-9.74-8.029-30.866-19.063-38.969,1.727c-7.378,18.929-20.172,23.489-56.52,23.674
		C463.149,138.668,465.124,138.073,456.289,137.179z"/>
	<path opacity="0.1" clip-path="url(#SVGID_3_)" d="M463.39,150.708l-6.25,43.928l1.684,27.826c0,0,30.159,1.138,57.311,0.141
		c27.152-0.997,86.556,1.315,120.087-0.191c33.53-1.506,107.068,3.34,126.202,1.811c19.134-1.529,33.276-11.241,17.269-12.698
		c-46.634-4.246-71.418-16.912-85.946-29.259c-13.519-11.49-18.382-22.921-19.535-27.222c-2.668-9.952-27.902-5.681-31.095-1.702
		c-7.53,2.179-13.535,4.11-18.819,3.31c-9.349-1.402-11.098-6.772-14.933-16.336c-5.735-14.301-5.375-10.117-12.122-12.3
		c-8.784-5.352-30.961-15.622-38.081,3.466c-6.092,16.332-21.701,19.739-54.806,20.372
		C463.617,151.7,469.279,151.304,463.39,150.708z"/>
</g>
<g>
	<path fill="#1A1A1A" d="M0,34.269h33.886l16.574,82.319c1.657,8.103,1.657,13.812,1.657,13.812h0.368c0,0,0.184-5.709,2.21-13.812
		l20.258-82.319h25.966l19.705,82.319c2.026,8.103,2.21,13.812,2.21,13.812h0.368c0,0,0-5.709,1.658-13.812l18.048-82.319h33.333
		l-33.333,131.674h-35.911L90.422,99.462c-2.026-8.472-2.578-15.47-2.578-15.47h-0.368c0,0-0.552,6.998-2.578,15.47l-16.574,66.481
		h-36.28L0,34.269z"/>
	<path fill="#1A1A1A" d="M242.921,32.059c39.778,0,68.876,29.466,68.876,67.219c0,38.673-29.098,68.875-68.876,68.875
		c-39.778,0-68.875-30.203-68.875-68.875C174.045,61.525,203.142,32.059,242.921,32.059z M242.921,138.687
		c19.705,0,35.543-16.942,35.543-39.41c0-21.547-15.837-37.753-35.543-37.753c-19.705,0-35.543,16.205-35.543,37.753
		C207.378,121.745,223.216,138.687,242.921,138.687z"/>
	<path fill="#1A1A1A" d="M321.939,34.269h45.856c13.443,0,19.889,0.921,25.598,3.131c14.917,5.708,24.309,19.152,24.309,38.305
		c0,13.995-6.63,29.281-19.705,35.911v0.368c0,0,1.842,2.393,4.973,7.919l25.598,46.04h-35.911l-23.388-44.382h-15.101v44.382
		h-32.228V34.269z M368.163,93.937c10.313,0,16.758-5.708,16.758-16.206c0-9.944-3.683-15.837-19.889-15.837h-10.865v32.044H368.163
		z"/>
	<path fill="#1A1A1A" d="M495.25,32.059c39.778,0,68.876,29.466,68.876,67.219c0,15.101-5.341,27.992-13.075,39.041l13.811,11.234
		l-18.232,20.442l-13.443-12.707c-10.681,6.998-23.572,10.865-37.937,10.865c-39.778,0-68.875-30.203-68.875-68.875
		C426.375,61.525,455.472,32.059,495.25,32.059z M495.25,138.687c4.788,0,10.313-0.921,14.365-2.946l-13.444-11.786l18.048-20.442
		l13.075,12.707c2.21-5.156,3.499-10.865,3.499-16.942c0-21.547-15.837-37.753-35.543-37.753c-19.705,0-35.543,16.205-35.543,37.753
		C459.708,121.745,475.546,138.687,495.25,138.687z"/>
</g>
</svg>
